<?xml version="1.0" encoding="utf-8"?>
<!-- Generator: Adobe Illustrator 22.0.1, SVG Export Plug-In . SVG Version: 6.00 Build 0)  -->
<svg version="1.1" id="Layer_1" xmlns="http://www.w3.org/2000/svg" xmlns:xlink="http://www.w3.org/1999/xlink" x="0px" y="0px"
	 viewBox="0 0 360 360" style="enable-background:new 0 0 360 360;" xml:space="preserve">
<style type="text/css">
	.st0{fill:#98C9EC;}
	.st1{fill:#98C9EC;stroke:#000000;stroke-width:2.0512;stroke-miterlimit:10;}
	.st2{fill:#F58D95;stroke:#000000;stroke-width:1.8547;stroke-miterlimit:10;}
	.st3{fill:#EEF2FA;stroke:#000000;stroke-width:1.8547;stroke-miterlimit:10;}
	.st4{fill:#EEF2FA;stroke:#000000;stroke-width:2.0512;stroke-miterlimit:10;}
	.st5{fill:none;stroke:#000000;stroke-width:2.0512;stroke-miterlimit:10;}
	.st6{fill:#98C9EC;stroke:#000000;stroke-width:1.8547;stroke-miterlimit:10;}
</style>
<circle class="st0" cx="180" cy="180.1" r="180"/>
<g>
	<path class="st1" d="M206.2,324.3h-21.9c-8.6,0-15.6-7-15.6-15.6v0c0-8.6,7-15.6,15.6-15.6h21.9c8.6,0,15.6,7,15.6,15.6v0
		C221.8,317.3,214.8,324.3,206.2,324.3z"/>
	<g>
		<path class="st2" d="M97.7,126.1v121.7c0,0-58.9,5.4-60.7-63.6C37.1,184.2,36.2,134.4,97.7,126.1z"/>
		<path class="st3" d="M73.4,244.2c12.9,4.7,24.4,3.7,24.4,3.7V126.1c-9.1,1.2-16.9,3.4-23.5,6.2L73.4,244.2z"/>
		<path class="st2" d="M262.3,126.1v121.7c0,0,58.9,5.4,60.7-63.6C322.9,184.2,323.8,134.4,262.3,126.1z"/>
		<path class="st3" d="M286.6,244.2c-12.9,4.7-24.4,3.7-24.4,3.7V126.1c9.1,1.2,16.9,3.4,23.5,6.2L286.6,244.2z"/>
		<path class="st3" d="M81.8,129.5c0,0,21.8-81.1,99.1-81.1s97.3,81.1,97.3,81.1s10.6,3.4,15.8,6.8c0,0-7.1-100.5-113.1-100.5
			S67.4,135.6,67.4,135.6S77.4,130.8,81.8,129.5z"/>
		<path class="st4" d="M219.7,300.8c0,0,49.1-12.4,52.2-53.2c0,0,9.1-1.1,14.3-3.2c0,0-11.6,60.4-64.4,66.9
			C221.8,311.2,222.1,303.9,219.7,300.8z"/>
		<path class="st5" d="M71.5,243.4"/>
		<path class="st6" d="M109.9,255.3h-6.8c-3,0-5.3-2.4-5.3-5.3V127.4c0-3,2.4-5.3,5.3-5.3h6.8c3,0,5.3,2.4,5.3,5.3V250
			C115.2,252.9,112.8,255.3,109.9,255.3z"/>
		<path class="st6" d="M256.9,253.6h-6.8c-3,0-5.3-2.4-5.3-5.3V125.8c0-3,2.4-5.3,5.3-5.3h6.8c3,0,5.3,2.4,5.3,5.3v122.5
			C262.3,251.2,259.9,253.6,256.9,253.6z"/>
	</g>
</g>
</svg>
