<?xml version="1.0" encoding="utf-8"?>
<!-- Generator: Adobe Illustrator 22.0.1, SVG Export Plug-In . SVG Version: 6.00 Build 0)  -->
<svg version="1.1" id="Layer_1" xmlns="http://www.w3.org/2000/svg" xmlns:xlink="http://www.w3.org/1999/xlink" x="0px" y="0px"
	 viewBox="0 0 360 360" style="enable-background:new 0 0 360 360;" xml:space="preserve">
<style type="text/css">
	.st0{fill:#98C9EC;}
	.st1{fill:#EEF2FA;stroke:#000000;stroke-width:1.2223;stroke-miterlimit:10;}
	.st2{fill:#98C9EC;stroke:#000000;stroke-width:1.2223;stroke-miterlimit:10;}
	.st3{fill:#F69B82;stroke:#000000;stroke-width:1.2223;stroke-miterlimit:10;}
</style>
<circle class="st0" cx="180" cy="180" r="180"/>
<path class="st1" d="M128,305.3v-19.5c0,0,8.1-20.1,51.1-18.9s52.9,16.5,52.9,16.5v21.9c0,0-23.1,9.9-52,11.4
	C151.1,318.2,128,305.3,128,305.3z"/>
<path class="st1" d="M215,170.1v-19.5c0,0,8.1-20.1,51.1-18.9s52.9,16.5,52.9,16.5v21.9c0,0-23.1,9.9-52,11.4S215,170.1,215,170.1z"
	/>
<path class="st2" d="M319,169.4v-21.9c0,0-9.9-15.3-52.9-16.5c-43-1.2-51.1,18.9-51.1,18.9s50.6-21.1,94.3,0.3l0.5,23.3l9.2-3.3
	V169.4z"/>
<path class="st1" d="M41.1,170.1v-19.5c0,0,8.1-20.1,51.1-18.9s52.9,16.5,52.9,16.5v21.9c0,0-23.1,9.9-52,11.4
	S41.1,170.1,41.1,170.1z"/>
<path class="st2" d="M145.1,169.4v-21.9c0,0-9.9-15.3-52.9-16.5c-43-1.2-51.1,18.9-51.1,18.9s50.6-21.1,94.3,0.3l0.5,23.3l9.2-3.3
	V169.4z"/>
<path class="st2" d="M232,305.3v-21.9c0,0-9.9-15.3-52.9-16.5S128,285.8,128,285.8s50.6-21.1,94.3,0.3l0.5,23.3l9.2-3.3V305.3z"/>
<path class="st1" d="M94.3,142.7c0,0,23.7-2.7,26.7-22.5c3-19.8,1.8-49.3-27.9-49.3s-31.5,28.8-27.3,49.9S94.3,142.7,94.3,142.7z"/>
<path class="st2" d="M94.3,142.7c0,0,23.7-2.7,26.7-22.5c3-19.8,1.8-49.3-27.9-49.3c-2.7,0-5.1,0.2-7.3,0.7c0,0,30.3,4.1,28.9,35.2
	C113.3,137.9,94.3,142.7,94.3,142.7z"/>
<path class="st3" d="M118.7,56.4l4.3,8.4c0,0,21.1-13.1,56.4-13.5c35.3-0.4,55.8,13.5,55.8,13.5l4.1-7.8c0,0-22.9-14.8-59.9-14.8
	S118.7,56.4,118.7,56.4z"/>
<path class="st3" d="M46.4,197h8.8c0,0,7.9,60.4,59.7,87.9l-5.2,8.6C109.8,293.6,54.6,264,46.4,197z"/>
<path class="st3" d="M303.3,195.7h9.5c0,0-9.8,69.6-63.3,96.1l-4.4-7.9C245.1,283.9,295.4,257.9,303.3,195.7z"/>
<path class="st1" d="M181.2,277.9c0,0,23.7-2.7,26.7-22.5s1.8-49.3-27.9-49.3S148.4,235,152.6,256
	C156.8,277,181.2,277.9,181.2,277.9z"/>
<path class="st2" d="M181.2,277.9c0,0,23.7-2.7,26.7-22.5s1.8-49.3-27.9-49.3c-2.7,0-5.1,0.2-7.3,0.7c0,0,30.3,4.1,28.9,35.2
	S181.2,277.9,181.2,277.9z"/>
<path class="st1" d="M268.2,142.7c0,0,23.7-2.7,26.7-22.5s1.8-49.3-27.9-49.3s-31.5,28.8-27.3,49.9
	C243.8,141.8,268.2,142.7,268.2,142.7z"/>
<path class="st2" d="M268.2,142.7c0,0,23.7-2.7,26.7-22.5s1.8-49.3-27.9-49.3c-2.7,0-5.1,0.2-7.3,0.7c0,0,30.3,4.1,28.9,35.2
	S268.2,142.7,268.2,142.7z"/>
</svg>
