<?xml version="1.0" encoding="utf-8"?>
<!-- Generator: Adobe Illustrator 22.0.1, SVG Export Plug-In . SVG Version: 6.00 Build 0)  -->
<svg version="1.1" id="Layer_1" xmlns="http://www.w3.org/2000/svg" xmlns:xlink="http://www.w3.org/1999/xlink" x="0px" y="0px"
	 viewBox="0 0 360 360" style="enable-background:new 0 0 360 360;" xml:space="preserve">
<style type="text/css">
	.st0{fill:#98C9EC;stroke:#000000;stroke-width:2.0504;stroke-miterlimit:10;}
	.st1{fill:#DDC2B3;stroke:#000000;stroke-width:2.0504;stroke-miterlimit:10;}
	.st2{fill:#EEF2FA;stroke:#000000;stroke-width:2.0504;stroke-miterlimit:10;}
	.st3{fill:#E6E7E8;stroke:#000000;stroke-width:2.0504;stroke-miterlimit:10;}
	.st4{fill:#F69B82;stroke:#000000;stroke-width:2.0504;stroke-miterlimit:10;}
	.st5{fill:none;stroke:#000000;stroke-width:2.0504;stroke-miterlimit:10;}
</style>
<rect x="160.3" y="67.5" class="st0" width="124.5" height="274.2"/>
<rect x="139.7" y="341.6" class="st1" width="161.9" height="16.8"/>
<rect x="186.6" y="286.5" class="st2" width="29.9" height="34.7"/>
<rect x="232" y="286.5" class="st2" width="29.9" height="34.7"/>
<rect x="185.5" y="236.5" class="st2" width="29.9" height="34.7"/>
<rect x="230.9" y="236.5" class="st2" width="29.9" height="34.7"/>
<rect x="185.5" y="186.6" class="st2" width="29.9" height="34.7"/>
<rect x="230.9" y="186.6" class="st2" width="29.9" height="34.7"/>
<rect x="185.5" y="136.7" class="st2" width="29.9" height="34.7"/>
<rect x="230.9" y="136.7" class="st2" width="29.9" height="34.7"/>
<rect x="184.3" y="86.7" class="st2" width="29.9" height="34.7"/>
<rect x="229.6" y="86.7" class="st2" width="29.9" height="34.7"/>
<rect x="63.6" y="133.8" class="st3" width="96.7" height="224.7"/>
<rect x="84.4" y="165.7" class="st2" width="55.3" height="11.5"/>
<rect x="84.4" y="192.4" class="st2" width="55.3" height="11.5"/>
<rect x="84.4" y="219.2" class="st2" width="55.3" height="11.5"/>
<rect x="84.4" y="245.9" class="st2" width="55.3" height="11.5"/>
<rect x="84.4" y="269.8" class="st2" width="55.3" height="11.5"/>
<rect x="84.4" y="296.5" class="st2" width="55.3" height="11.5"/>
<rect x="199" y="56" class="st4" width="43" height="11.5"/>
<line class="st5" x1="220.6" y1="0.1" x2="220.6" y2="56"/>
<rect x="58.4" y="121.8" class="st1" width="101.9" height="12"/>
</svg>
