<?xml version="1.0" encoding="utf-8"?>
<!-- Generator: Adobe Illustrator 22.0.1, SVG Export Plug-In . SVG Version: 6.00 Build 0)  -->
<svg version="1.1" id="Layer_1" xmlns="http://www.w3.org/2000/svg" xmlns:xlink="http://www.w3.org/1999/xlink" x="0px" y="0px"
	 viewBox="0 0 360 360" style="enable-background:new 0 0 360 360;" xml:space="preserve">
<style type="text/css">
	.st0{fill:#BCBEC0;stroke:#000000;stroke-width:2.1739;stroke-miterlimit:10;}
	.st1{fill:#E6E7E8;stroke:#000000;stroke-width:2.1739;stroke-miterlimit:10;}
	.st2{fill:#3476BA;stroke:#000000;stroke-width:1.9474;stroke-miterlimit:10;}
	.st3{fill:#98C9EC;stroke:#000000;stroke-width:1.9474;stroke-miterlimit:10;}
	.st4{fill:#EEF2FA;stroke:#000000;stroke-width:2.1739;stroke-miterlimit:10;}
</style>
<g>
	<path class="st0" d="M35.1,28.2L180.8,0l143.8,28.2v198.2c0,0-2.2,70.5-144.8,134.5c0,0-130-44.7-144.8-133.9V28.2z"/>
	<path class="st1" d="M179.8,360.9c142.6-63.9,144.8-134.5,144.8-134.5V28.2L180.8,0L179.8,360.9z"/>
	<path class="st2" d="M50.1,44.1l130.6-25.3l128.8,25.3v177.5c0,0-2,63.2-129.7,120.5c0,0-116.5-40-129.7-120V44.1z"/>
	<path class="st3" d="M179.8,342.1c127.7-57.3,129.7-120.5,129.7-120.5V44.1L180.7,18.8L179.8,342.1z"/>
	<polygon class="st4" points="92.9,163 63.4,192.5 146.7,267.4 295.2,119.3 266.6,90.7 144.9,211.9 	"/>
</g>
</svg>
