<?xml version="1.0" encoding="utf-8"?>
<!-- Generator: Adobe Illustrator 22.0.1, SVG Export Plug-In . SVG Version: 6.00 Build 0)  -->
<svg version="1.1" id="Layer_1" xmlns="http://www.w3.org/2000/svg" xmlns:xlink="http://www.w3.org/1999/xlink" x="0px" y="0px"
	 viewBox="0 0 360 360" style="enable-background:new 0 0 360 360;" xml:space="preserve">
<style type="text/css">
	.st0{fill:#98C9EC;stroke:#000000;stroke-width:2.0349;stroke-miterlimit:10;}
	.st1{fill:#EEF2FA;stroke:#000000;stroke-width:2.0349;stroke-miterlimit:10;}
	.st2{fill:#DDC2B3;stroke:#000000;stroke-width:2.0349;stroke-miterlimit:10;}
	.st3{fill:#F58D95;stroke:#000000;stroke-width:2.0349;stroke-miterlimit:10;}
	.st4{fill:none;stroke:#000000;stroke-width:2.0349;stroke-miterlimit:10;}
	.st5{fill:#D1D3D4;stroke:#000000;stroke-width:2.0349;stroke-miterlimit:10;}
</style>
<path class="st0" d="M271,360H89c-15.3,0-27.7-12.4-27.7-27.7V59.1c0-15.3,12.4-27.7,27.7-27.7h182c15.3,0,27.7,12.4,27.7,27.7
	v273.2C298.7,347.6,286.3,360,271,360z"/>
<polygon class="st1" points="266.6,265.4 266.6,62.5 93.4,62.5 93.4,328.2 202.5,328.2 "/>
<path class="st2" d="M124.2,69.2H233V29.4c0,0,1.1-6-12.4-6.4c-13.5-0.4-84.4,0-84.4,0s-10.5,0-12,9.8V69.2z"/>
<path class="st2" d="M196.8,22.8c0.5-1.7,0.8-3.4,0.8-5.3C197.6,7.9,189.7,0,180,0s-17.6,7.9-17.6,17.6c0,1.8,0.3,3.6,0.8,5.3
	L196.8,22.8z"/>
<circle class="st1" cx="180" cy="12.3" r="5.7"/>
<rect x="113.7" y="96.9" class="st3" width="52.8" height="52.8"/>
<line class="st4" x1="180" y1="96.9" x2="247.8" y2="96.9"/>
<line class="st4" x1="180" y1="114.6" x2="247.8" y2="114.6"/>
<line class="st4" x1="180" y1="132.3" x2="247.8" y2="132.3"/>
<line class="st4" x1="180" y1="150" x2="247.8" y2="150"/>
<line class="st4" x1="113.7" y1="163.9" x2="247.8" y2="163.9"/>
<line class="st4" x1="113.7" y1="181.6" x2="247.8" y2="181.6"/>
<line class="st4" x1="113.7" y1="199.3" x2="247.8" y2="199.3"/>
<line class="st4" x1="113.7" y1="217" x2="247.8" y2="217"/>
<line class="st4" x1="113.7" y1="234.7" x2="247.8" y2="234.7"/>
<line class="st4" x1="113.7" y1="252.4" x2="247.8" y2="252.4"/>
<line class="st4" x1="113.7" y1="270.1" x2="180" y2="270.1"/>
<polygon class="st5" points="265.9,266.3 201.9,266.3 201.9,329.1 "/>
</svg>
