<?xml version="1.0" encoding="utf-8"?>
<!-- Generator: Adobe Illustrator 22.0.1, SVG Export Plug-In . SVG Version: 6.00 Build 0)  -->
<svg version="1.1" id="Layer_1" xmlns="http://www.w3.org/2000/svg" xmlns:xlink="http://www.w3.org/1999/xlink" x="0px" y="0px"
	 viewBox="0 0 360 360" style="enable-background:new 0 0 360 360;" xml:space="preserve">
<style type="text/css">
	.st0{fill:#98C9EC;}
	.st1{fill:#D1D3D4;stroke:#000000;stroke-width:1.928;stroke-miterlimit:10;}
	.st2{fill:#98C9EC;stroke:#000000;stroke-width:1.928;stroke-miterlimit:10;}
	.st3{fill:#EEF2FA;stroke:#000000;stroke-width:1.8178;stroke-miterlimit:10;}
	.st4{fill:#A7A9AC;stroke:#000000;stroke-width:1.8178;stroke-miterlimit:10;}
</style>
<circle class="st0" cx="180" cy="180.1" r="180"/>
<g>
	<path class="st1" d="M280.9,310.2H79.1c-8.5,0-15.5-6.9-15.5-15.5V161.4c0-8.5,6.9-15.5,15.5-15.5h201.9c8.5,0,15.5,6.9,15.5,15.5
		v133.3C296.4,303.3,289.5,310.2,280.9,310.2z"/>
	<path class="st2" d="M296.4,161.4c0-8.5-6.9-15.5-15.5-15.5H79.1c-8.5,0-15.5,6.9-15.5,15.5v133.3c0,8.5,6.9,15.5,15.5,15.5
		c0,0-7.6-6.9-7.6-15.7s1-131.3,1-131.3s0.5-6.8,9.3-8.8c8.8-2,196,0,196,0s15.8,1.7,18.6,12.8V161.4z"/>
	<path class="st3" d="M205,217.9c0-14.1-11.4-25.4-25.4-25.4s-25.4,11.4-25.4,25.4c0,9.3,5.1,17.5,12.6,21.9h-0.2v20
		c0,0,3,10.7,13.2,10c10.3-0.7,12.9-10.4,12.9-10.4v-19.6h-0.2C199.9,235.4,205,227.3,205,217.9z"/>
	<path class="st4" d="M205,217.9c0-14.1-11.4-25.4-25.4-25.4s-25.4,11.4-25.4,25.4c0,0,9-11.3,25.4-11.5
		C196,206.2,205,217.9,205,217.9z"/>
	<path class="st3" d="M91.3,145.9h32.9c0,0-6.2-61.4,55.3-62.8c0,0,56.9-1.9,55.8,62.8H268c0,0,4.9-89.5-85.7-95.8
		C182.3,50.1,96.3,44,91.3,145.9z"/>
</g>
</svg>
